<svg width="96" height="96" viewBox="0 0 96 96" fill="none" xmlns="http://www.w3.org/2000/svg">
  <defs>
    <linearGradient id="bg" x1="18" y1="10" x2="82" y2="86" gradientUnits="userSpaceOnUse">
      <stop stop-color="#FFFDF8"/>
      <stop offset="0.48" stop-color="#FADBEA"/>
      <stop offset="1" stop-color="#CDEEFF"/>
    </linearGradient>
    <linearGradient id="stroke" x1="21" y1="21" x2="75" y2="78" gradientUnits="userSpaceOnUse">
      <stop stop-color="#F4A9CB"/>
      <stop offset="1" stop-color="#86CDEB"/>
    </linearGradient>
    <filter id="softShadow" x="4" y="6" width="88" height="88" filterUnits="userSpaceOnUse" color-interpolation-filters="sRGB">
      <feDropShadow dx="0" dy="8" stdDeviation="8" flood-color="#C6DBEA" flood-opacity="0.38"/>
      <feDropShadow dx="0" dy="2" stdDeviation="4" flood-color="#F3B8D1" flood-opacity="0.28"/>
    </filter>
  </defs>
  <rect x="12" y="12" width="72" height="72" rx="24" fill="url(#bg)" filter="url(#softShadow)"/>
  <rect x="15" y="15" width="66" height="66" rx="21" stroke="white" stroke-width="4" opacity="0.9"/>
  <path d="M31 31H65M36 43H61M31 55H65" stroke="url(#stroke)" stroke-width="6" stroke-linecap="round"/>
  <path d="M49 28C49 46 43 60 31 69M49 48C55 58 62 65 70 70" stroke="#4D6574" stroke-width="6" stroke-linecap="round" stroke-linejoin="round"/>
  <circle cx="31" cy="28" r="4" fill="#F6B7D2"/>
  <circle cx="68" cy="36" r="3" fill="#A6DDF4"/>
  <path d="M66 22L68.2 26.2L72.8 28.4L68.2 30.6L66 34.8L63.8 30.6L59.2 28.4L63.8 26.2L66 22Z" fill="white" opacity="0.95"/>
</svg>
